<svg width="79" height="35" viewBox="0 0 79 35" fill="none" xmlns="http://www.w3.org/2000/svg">
<path d="M10.0129 6.69742C10.0129 3.78019 10.0468 3.74627 12.8623 3.54274V2.89824H3.83921V3.54274C6.65468 3.78019 6.72252 3.78019 6.72252 6.69742V28.3731C6.72252 31.5278 6.24763 33.5631 4.58548 33.5631C3.33039 33.5631 2.41452 32.4437 1.19335 30.0353L0.548846 30.2049L0.921981 33.6649C1.83786 34.1737 3.12687 34.445 4.28019 34.445C7.43487 34.445 10.0129 32.4776 10.0129 27.559V6.69742ZM21.5498 28.3392C24.6367 28.3392 26.8076 26.1682 28.2663 24.4043L27.8592 23.8616C26.4345 25.3541 24.6706 26.4057 23.0424 26.4057C19.7859 26.4057 17.9542 22.1316 17.9203 17.3487L27.7914 16.3311C27.7914 10.9376 24.6706 9.34328 21.9569 9.34328C17.3775 9.34328 14.596 13.6513 14.596 19.2822C14.596 25.2863 17.8524 28.3392 21.5498 28.3392ZM21.5159 10.327C22.5336 10.327 24.3653 10.8697 24.5688 15.7544H17.9881C18.2595 12.5658 19.4467 10.327 21.5159 10.327ZM46.3765 28.5088L51.5326 13.3121C52.3467 10.9037 52.5163 10.7341 54.0088 10.6662V10.0217C53.1947 10.0896 52.2788 10.1574 51.2951 10.1574C50.3453 10.1574 49.3616 10.0896 48.344 10.0217V10.6662C49.8704 10.7001 50.481 10.768 50.481 11.6839C50.481 12.2944 50.2096 13.2782 49.7347 14.8385L46.9193 23.9973L43.7646 13.5495C43.4932 12.5997 43.3236 11.9552 43.3236 11.5482C43.3236 10.768 43.9003 10.7001 45.3928 10.6662V10.0217C44.2056 10.0896 42.9844 10.1574 41.7632 10.1574C40.5421 10.1574 39.3548 10.0896 38.1337 10.0217V10.6662C39.0495 10.6662 39.287 10.6662 40.135 13.0746L41.1187 15.924L38.7442 23.9973L35.2843 13.5495C34.9111 12.4301 34.7415 11.7517 34.7415 11.3446C34.7415 10.7341 35.1147 10.7001 35.8948 10.6662V10.0217C34.7415 10.0896 33.5543 10.1574 32.401 10.1574C31.2476 10.1574 30.1621 10.0896 29.1445 10.0217V10.6662C30.5014 10.7001 30.8066 10.8019 31.6547 13.0746L37.4213 28.5088H38.2354L41.7632 17.6879L45.5624 28.5088H46.3765ZM62.527 28.3392C65.6139 28.3392 67.7848 26.1682 69.2435 24.4043L68.8364 23.8616C67.4117 25.3541 65.6478 26.4057 64.0196 26.4057C60.7631 26.4057 58.9314 22.1316 58.8975 17.3487L68.7686 16.3311C68.7686 10.9376 65.6478 9.34328 62.9341 9.34328C58.3547 9.34328 55.5732 13.6513 55.5732 19.2822C55.5732 25.2863 58.8296 28.3392 62.527 28.3392ZM62.4931 10.327C63.5108 10.327 65.3425 10.8697 65.546 15.7544H58.9653C59.2367 12.5658 60.4239 10.327 62.4931 10.327ZM78.8734 27.3555C76.465 27.118 76.024 27.0841 76.024 23.5224V0.761193L75.7526 0.591586C73.9209 2.18589 72.3605 2.96608 69.7146 2.96608V3.61058C72.0891 3.61058 72.9032 3.84803 72.9032 6.05292V23.5224C72.9032 27.0841 72.8015 27.152 70.0539 27.3555V28H78.8734V27.3555Z" fill="black"/>
</svg>
