<svg width="188" height="34" viewBox="0 0 188 34" fill="none" xmlns="http://www.w3.org/2000/svg">
<path d="M184 25.5C186.209 25.5 188 27.2909 188 29.5C188 31.7091 186.209 33.5 184 33.5C181.791 33.5 180 31.7091 180 29.5C180 27.2909 181.791 25.5 184 25.5Z" fill="#BF0000"/>
<path d="M184 13C186.209 13 188 14.7909 188 17C188 19.2091 186.209 21 184 21C181.791 21 180 19.2091 180 17C180 14.7909 181.791 13 184 13Z" fill="#FF797F"/>
<path d="M184 0.5C186.209 0.5 188 2.29086 188 4.5C188 6.70914 186.209 8.5 184 8.5C181.791 8.5 180 6.70914 180 4.5C180 2.29086 181.791 0.5 184 0.5Z" fill="#272F39"/>
<path d="M41.9508 5V28.95C41.9508 30.35 41.9508 31.3 41.3508 32.1C40.7508 32.9 39.7008 33.25 38.0008 33.25C36.3008 33.25 35.2508 32.9 34.6508 32.1C34.0508 31.3 34.0508 30.35 34.0508 28.95V5C34.0508 3.6 34.0508 2.65 34.6508 1.85C35.2508 1.05 36.3008 0.7 38.0008 0.7C39.7008 0.7 40.7508 1.05 41.3508 1.85C41.9508 2.65 41.9508 3.6 41.9508 5Z" fill="#272F39"/>
<path d="M64.7594 7.75V28.95C64.7594 30.3 64.7594 31.25 64.1594 32.05C63.5594 32.85 62.5094 33.25 60.8094 33.25C59.1094 33.25 58.0594 32.85 57.4594 32.05C56.8594 31.25 56.8594 30.3 56.8594 28.95V7.75H51.4094C50.0594 7.75 49.1594 7.75 48.3594 7.2C47.6094 6.65 47.1594 5.75 47.1594 4.25C47.1594 2.7 47.6094 1.8 48.3594 1.25C49.1594 0.7 50.0594 0.7 51.4094 0.7H70.2094C71.5594 0.7 72.4594 0.7 73.2594 1.25C74.0094 1.8 74.4594 2.7 74.4594 4.25C74.4594 5.75 74.0094 6.65 73.2594 7.2C72.4594 7.75 71.5594 7.75 70.2094 7.75H64.7594Z" fill="#272F39"/>
<path d="M83.9437 16.6C83.9437 23.4 88.1438 26.4 92.7438 26.4C94.0938 26.4 95.2937 26.15 96.5437 25.65C98.0437 25.05 98.9937 24.35 100.044 24.35C102.094 24.35 103.194 26.8 103.194 28.3C103.194 29.55 102.394 30.6 100.944 31.5C98.6437 32.9 95.2438 33.55 92.2938 33.55C83.1438 33.55 75.9437 27.4 75.9437 16.75C75.9437 5.55 83.8437 0 92.4437 0C95.5937 0 98.8937 0.749999 100.944 2C102.494 2.95 103.194 4 103.194 5.25C103.194 6.8 102.144 9.25 100.044 9.25C98.9437 9.25 97.8937 8.6 96.2937 7.95C95.0437 7.45 93.7938 7.15 92.3438 7.15C87.9437 7.15 83.9437 10 83.9437 16.6Z" fill="#272F39"/>
<path d="M138.196 4.65V28.95C138.196 30.35 138.196 31.3 137.596 32.1C136.996 32.9 135.946 33.25 134.246 33.25C132.546 33.25 131.496 32.9 130.896 32.1C130.296 31.3 130.296 30.35 130.296 28.95V19.45H117.146V28.95C117.146 30.35 117.146 31.3 116.546 32.1C115.946 32.9 114.896 33.25 113.196 33.25C111.496 33.25 110.446 32.9 109.846 32.1C109.246 31.3 109.246 30.35 109.246 28.95V4.65C109.246 3.25 109.246 2.3 109.846 1.5C110.446 0.7 111.496 0.349998 113.196 0.349998C114.896 0.349998 115.946 0.7 116.546 1.5C117.146 2.3 117.146 3.25 117.146 4.65V12.45H130.296V4.65C130.296 3.25 130.296 2.3 130.896 1.5C131.496 0.7 132.546 0.349998 134.246 0.349998C135.946 0.349998 136.996 0.7 137.596 1.5C138.196 2.3 138.196 3.25 138.196 4.65Z" fill="#272F39"/>
<path d="M154.25 12.9V28.95C154.25 30.35 154.25 31.25 153.65 32.05C153.05 32.8 152.1 33.25 150.45 33.25C148.75 33.25 147.8 32.8 147.2 32.05C146.6 31.25 146.6 30.3 146.6 28.95V3.4C146.6 1.5 147.95 0.299999 150.75 0.299999C153.65 0.299999 154.75 1.55 156.05 3.25L168.95 20.15V4.65C168.95 3.25 168.95 2.35 169.55 1.55C170.15 0.799999 171.1 0.349998 172.75 0.349998C174.45 0.349998 175.4 0.799999 176 1.55C176.6 2.35 176.6 3.25 176.6 4.65V30.25C176.6 32.35 175.25 33.4 172.95 33.4C170.55 33.4 169.4 32.3 168.05 30.55L154.25 12.9Z" fill="#272F39"/>
<path d="M7.9 4.6501C7.9 3.2501 7.9 2.3001 7.3 1.5001C6.7 0.700099 5.65 0.350098 3.95 0.350098C2.25 0.350098 1.2 0.700099 0.6 1.5001C0 2.3001 0 3.2501 0 4.6501V28.9501C0 30.3501 0 31.3001 0.6 32.1001C1.2 32.9001 2.25 33.2501 3.95 33.2501C5.65 33.2501 6.7 32.9001 7.3 32.1001C7.9 31.3001 7.9 30.3501 7.9 28.9501V4.6501Z" fill="#272F39"/>
<path d="M19.1 3.7501L10 15.6501L20.15 29.9501C21.95 32.2001 22.95 33.3501 26.1 33.3501C28.9 33.3501 29.95 32.4501 29.95 31.1501C29.95 30.3001 29.45 29.4501 28.55 28.4001L17.5 15.6501L27.15 5.1501C27.95 4.2501 28.6 3.4501 28.6 2.4501C28.6 1.3001 27.7 0.450096 25.1 0.450096C22 0.450096 20.9 1.6001 19.1 3.7501Z" fill="#272F39"/>
</svg>
