<svg width="192" height="30" viewBox="0 0 192 30" fill="none" xmlns="http://www.w3.org/2000/svg">
<path d="M13.56 1.62667C8.08445 1.62667 4.75556 5.54667 4.75556 12.08C4.75556 18.6444 8.11556 22.5956 13.5911 22.5956C17.1378 22.5956 21.2133 20.9467 22.2711 19.0489H22.4578V21.1956C20.0311 22.5022 17.1067 23.1867 14.12 23.1867C6.34222 23.1867 0.711111 18.52 0.711111 12.1422C0.711111 5.79555 6.31111 1.03555 13.8089 1.03555C16.7333 1.03555 19.72 1.75111 22.2711 3.05778V5.17333H22.0844C20.56 3.12 16.92 1.62667 13.56 1.62667ZM38.2916 6.57333C43.2072 6.57333 45.4472 8.56444 45.4472 13.0756V21.1333C45.4472 22.44 45.7583 22.8133 46.6294 22.8133V23H41.9316V18.8C40.1272 21.5067 37.1405 23.1867 33.9983 23.1867C30.6694 23.1867 28.2427 21.32 28.2427 18.8311C28.2427 15.2844 33.1272 13.0444 41.745 11.9556C41.6205 8.62667 40.3761 7.16444 37.7939 7.16444C34.7761 7.16444 31.3227 9.15556 29.8605 11.6444H29.6739V9.15556C31.6339 7.53778 34.8694 6.57333 38.2916 6.57333ZM41.7761 17.9911V12.64C35.7405 13.5422 32.0694 15.3778 32.0694 18.5822C32.0694 20.5111 33.4383 21.6933 35.585 21.6933C37.8872 21.6933 40.3139 20.3556 41.7761 17.9911ZM53.0084 21.1333V8.62667C53.0084 7.38222 52.7284 6.94667 51.7951 6.94667V6.76H56.4306V12.64C57.5506 9.68444 60.2573 6.57333 65.0484 6.57333V10.3689C63.8973 9.87111 62.8084 9.62222 61.8128 9.62222C59.3862 9.62222 57.5195 11.0222 56.6795 13.48V21.1333C56.6795 22.3778 56.9595 22.8133 57.8928 22.8133V23H51.7951V22.8133C52.7284 22.8133 53.0084 22.3778 53.0084 21.1333ZM70.8548 21.1333V8.62667C70.8548 7.38222 70.5748 6.94667 69.6414 6.94667V6.76H74.277V12.64C75.397 9.68444 78.1036 6.57333 82.8948 6.57333V10.3689C81.7436 9.87111 80.6548 9.62222 79.6592 9.62222C77.2325 9.62222 75.3659 11.0222 74.5259 13.48V21.1333C74.5259 22.3778 74.8059 22.8133 75.7392 22.8133V23H69.6414V22.8133C70.5748 22.8133 70.8548 22.3778 70.8548 21.1333ZM87.5823 29.16V25.7378C88.609 25.9556 90.0712 26.1733 91.5023 26.1733C93.3068 26.1733 95.0801 25.8 95.7334 24.5556L96.5112 23.0622L88.9512 8.84444C88.2979 7.6 87.8934 6.94667 86.7734 6.94667V6.76H93.929V6.94667C92.529 6.94667 92.5601 7.78667 93.1201 8.84444L98.5645 19.1422L103.916 8.87555C104.476 7.81778 104.693 6.94667 103.418 6.94667V6.76H106.653V6.94667C105.845 6.94667 105.316 7.81778 104.693 9L96.4179 24.8667C94.6134 28.32 90.5068 29.16 87.5823 29.16ZM123.773 1.62667C122.258 1.62667 120.879 1.87555 119.635 2.37333C118.39 2.87111 117.322 3.5763 116.43 4.48889C115.559 5.40148 114.875 6.50074 114.377 7.78667C113.9 9.07259 113.661 10.5037 113.661 12.08C113.661 13.6563 113.9 15.0978 114.377 16.4044C114.875 17.6904 115.57 18.7896 116.461 19.7022C117.353 20.6148 118.432 21.3304 119.697 21.8489C120.962 22.3467 122.362 22.5956 123.897 22.5956C124.768 22.5956 125.608 22.5126 126.417 22.3467C127.247 22.1807 128.004 21.9422 128.688 21.6311C129.373 21.32 129.984 20.9467 130.524 20.5111C131.063 20.0756 131.488 19.5881 131.799 19.0489H131.986V21.1956C129.621 22.523 127.029 23.1867 124.208 23.1867C122.404 23.1867 120.744 22.917 119.23 22.3778C117.716 21.8178 116.41 21.0504 115.31 20.0756C114.211 19.08 113.35 17.9081 112.728 16.56C112.106 15.2119 111.795 13.7393 111.795 12.1422C111.795 10.5452 112.096 9.07259 112.697 7.72444C113.319 6.35555 114.17 5.1837 115.248 4.20889C116.327 3.21333 117.602 2.43556 119.075 1.87556C120.568 1.31556 122.186 1.03555 123.928 1.03555C125.297 1.03555 126.645 1.21185 127.973 1.56444C129.3 1.8963 130.576 2.39407 131.799 3.05778V5.17333H131.613C130.679 3.99111 129.549 3.10963 128.221 2.52889C126.894 1.92741 125.411 1.62667 123.773 1.62667ZM139.349 2.46667C139.349 1.84444 139.266 1.40889 139.1 1.16C138.934 0.91111 138.613 0.786666 138.136 0.786666V0.599999H141.091V21.1333C141.091 21.7556 141.143 22.1911 141.247 22.44C141.371 22.6889 141.724 22.8133 142.305 22.8133V23H138.136V22.8133C138.426 22.8133 138.654 22.7822 138.82 22.72C138.986 22.6578 139.111 22.5644 139.193 22.44C139.276 22.3156 139.318 22.1496 139.318 21.9422C139.339 21.7141 139.349 21.4444 139.349 21.1333V2.46667ZM165.59 21.1333C165.59 21.797 165.673 22.243 165.839 22.4711C166.026 22.6993 166.347 22.8133 166.804 22.8133V23H164.035V17.6178C163.599 18.4681 163.039 19.2356 162.355 19.92C161.691 20.6044 160.965 21.1956 160.177 21.6933C159.41 22.1704 158.601 22.5437 157.75 22.8133C156.921 23.0622 156.101 23.1867 155.293 23.1867C154.525 23.1867 153.799 23.0622 153.115 22.8133C152.43 22.5644 151.829 22.1807 151.31 21.6622C150.792 21.123 150.377 20.4489 150.066 19.64C149.775 18.8104 149.63 17.8252 149.63 16.6844V8.62667C149.63 7.96296 149.537 7.51704 149.35 7.28889C149.184 7.06074 148.873 6.94667 148.417 6.94667V6.76H152.617V6.94667C152.181 6.94667 151.87 7.06074 151.684 7.28889C151.518 7.51704 151.435 7.96296 151.435 8.62667V17.1822C151.435 18.0741 151.549 18.8415 151.777 19.4844C152.026 20.1067 152.358 20.6252 152.773 21.04C153.187 21.4341 153.664 21.7244 154.204 21.9111C154.743 22.0978 155.324 22.1911 155.946 22.1911C156.693 22.1911 157.45 22.0667 158.217 21.8178C159.005 21.5481 159.752 21.1748 160.457 20.6978C161.183 20.2207 161.836 19.64 162.417 18.9556C163.018 18.2504 163.495 17.4622 163.848 16.5911V8.62667C163.848 7.96296 163.755 7.51704 163.568 7.28889C163.402 7.06074 163.091 6.94667 162.635 6.94667V6.76H165.59V21.1333ZM173.796 2.46667C173.796 1.80296 173.703 1.35704 173.516 1.12889C173.35 0.90074 173.039 0.786666 172.583 0.786666V0.599999H175.538V10.5244C176.243 9.28 177.208 8.31556 178.432 7.63111C179.676 6.92593 181.107 6.57333 182.725 6.57333C183.949 6.57333 185.079 6.78074 186.116 7.19556C187.153 7.61037 188.045 8.19111 188.792 8.93778C189.538 9.6637 190.119 10.5348 190.534 11.5511C190.969 12.5674 191.187 13.677 191.187 14.88C191.187 16.083 190.969 17.1926 190.534 18.2089C190.119 19.2252 189.528 20.1067 188.761 20.8533C188.014 21.5793 187.112 22.1496 186.054 22.5644C185.017 22.9793 183.876 23.1867 182.632 23.1867C180.931 23.1867 179.448 22.803 178.183 22.0356C176.918 21.2681 175.953 20.2 175.289 18.8311V23H172.583V22.8133C173.101 22.8133 173.433 22.72 173.578 22.5333C173.723 22.3467 173.796 21.88 173.796 21.1333V2.46667ZM175.538 18.0844C176.078 19.3911 176.938 20.4178 178.121 21.1644C179.303 21.9111 180.682 22.2844 182.258 22.2844C183.316 22.2844 184.281 22.1081 185.152 21.7556C186.023 21.3822 186.769 20.8741 187.392 20.2311C188.035 19.5674 188.522 18.7793 188.854 17.8667C189.206 16.9541 189.383 15.9378 189.383 14.8178C189.383 13.7185 189.206 12.723 188.854 11.8311C188.522 10.9185 188.045 10.1407 187.423 9.49778C186.821 8.85481 186.085 8.35704 185.214 8.00444C184.363 7.65185 183.42 7.47556 182.383 7.47556C180.806 7.47556 179.417 7.84889 178.214 8.59555C177.011 9.34222 176.119 10.3585 175.538 11.6444V18.0844Z" fill="#121414"/>
</svg>
