<svg width="30" height="30" viewBox="0 0 30 30" fill="none" xmlns="http://www.w3.org/2000/svg">
<g clip-path="url(#clip0_1249_52336)">
<path d="M11.2568 8.13376C11.2568 7.09876 12.0968 6.25876 13.1318 6.25876C14.1668 6.25876 15.0068 7.09876 15.0068 8.13376C15.0068 9.16876 14.1668 10.0088 13.1318 10.0088C12.0968 10.0088 11.2568 9.16876 11.2568 8.13376ZM29.8018 18.9475C28.9193 21.9725 27.3168 24.7025 25.1681 26.8425C23.1456 28.855 20.2906 30.01 17.3318 30.01H12.6793C9.72184 30.01 6.86684 28.855 4.84434 26.8438C2.69684 24.7038 1.09434 21.9738 0.210588 18.9475C-0.239412 17.4075 0.0530881 15.79 1.01309 14.5088C1.44059 13.9388 1.96934 13.4788 2.56684 13.1438C2.52809 12.88 2.50809 12.6138 2.50809 12.3438C2.50809 10.4675 3.46684 8.77751 5.01809 7.80751C5.01059 7.70626 5.00684 7.60751 5.00684 7.51001C5.00684 4.57126 7.57309 2.17751 10.5531 2.54251C11.4806 0.991257 13.1556 0.00750732 15.0081 0.00750732C16.8606 0.00750732 18.5356 0.990007 19.4631 2.54126C22.3568 2.19626 24.8943 4.46751 25.0043 7.31501C26.5493 8.29126 27.5081 9.98626 27.5081 11.845C27.5081 12.2663 27.4568 12.6863 27.3606 13.095C27.9931 13.4338 28.5518 13.9113 29.0006 14.5075C29.9606 15.7875 30.2531 17.405 29.8031 18.9463L29.8018 18.9475ZM5.00809 12.3425C5.00809 12.3988 5.01059 12.4538 5.01309 12.51H16.3581C16.2868 12.3113 16.2481 12.0975 16.2481 11.875C16.2481 10.84 17.0881 10 18.1231 10C19.1581 10 19.9981 10.84 19.9981 11.875C19.9981 12.0975 19.9593 12.3113 19.8881 12.51H24.9318C24.9818 12.295 25.0081 12.0725 25.0081 11.8463C25.0081 10.69 24.3068 9.65001 23.2218 9.19751C22.6956 8.97751 22.3843 8.42876 22.4668 7.86376C22.4881 7.72001 22.5068 7.61751 22.5068 7.51001C22.5068 6.13126 21.3856 5.01001 20.0068 5.01001C19.7443 5.01001 19.4718 5.06126 19.1768 5.16626C18.8606 5.28001 18.5106 5.26001 18.2093 5.11251C17.9068 4.96501 17.6756 4.70126 17.5706 4.38126C17.1993 3.26126 16.1706 2.50876 15.0068 2.50876C13.8431 2.50876 12.8131 3.26251 12.4418 4.38251C12.3356 4.70251 12.1056 4.96501 11.8031 5.11251C11.5006 5.26001 11.1506 5.28001 10.8356 5.16626C10.5406 5.06126 10.2681 5.01001 10.0056 5.01001C8.62684 5.01001 7.50559 6.13126 7.50559 7.51001C7.50559 7.70126 7.53809 7.91126 7.61059 8.17126C7.78184 8.79001 7.45559 9.43751 6.85684 9.66876C5.73309 10.1038 5.00684 11.1538 5.00684 12.3438L5.00809 12.3425ZM26.9993 16.0088C26.5243 15.3738 25.7968 15.01 25.0031 15.01H5.00934C4.21684 15.01 3.48934 15.3738 3.01434 16.0075C2.53059 16.6525 2.38434 17.4688 2.61184 18.2463C3.36684 20.8313 4.78559 23.2563 6.61059 25.0713C8.16559 26.6213 10.3793 27.51 12.6793 27.51H17.3318C19.6331 27.51 21.8456 26.6213 23.4031 25.0713C25.2268 23.2538 26.6468 20.83 27.4006 18.2463C27.6281 17.4688 27.4818 16.6525 26.9993 16.0088Z" fill="#272F39"/>
</g>
<defs>
<clipPath id="clip0_1249_52336">
<rect width="30" height="30" fill="white"/>
</clipPath>
</defs>
</svg>
