<svg width="34" height="9" viewBox="0 0 34 9" fill="none" xmlns="http://www.w3.org/2000/svg">
<path d="M8.5 4.5C8.5 6.70914 6.70914 8.5 4.5 8.5C2.29086 8.5 0.5 6.70914 0.5 4.5C0.5 2.29086 2.29086 0.5 4.5 0.5C6.70914 0.5 8.5 2.29086 8.5 4.5Z" fill="#BF0000"/>
<path d="M21 4.5C21 6.70914 19.2091 8.5 17 8.5C14.7909 8.5 13 6.70914 13 4.5C13 2.29086 14.7909 0.5 17 0.5C19.2091 0.5 21 2.29086 21 4.5Z" fill="#FF797F"/>
<path d="M33.5 4.5C33.5 6.70914 31.7091 8.5 29.5 8.5C27.2909 8.5 25.5 6.70914 25.5 4.5C25.5 2.29086 27.2909 0.5 29.5 0.5C31.7091 0.5 33.5 2.29086 33.5 4.5Z" fill="#272F39"/>
</svg>
