<svg width="80" height="80" viewBox="0 0 80 80" fill="none" xmlns="http://www.w3.org/2000/svg">
<path d="M71.1385 17.0833C70.2044 15.9108 69.0174 14.9645 67.6661 14.3151C66.3149 13.6658 64.8344 13.3302 63.3352 13.3333H48.9119L49.3352 9.63333C49.4252 8.81999 49.8113 8.06816 50.4198 7.52108C51.0284 6.974 51.8169 6.66988 52.6352 6.66667H66.6685C67.5526 6.66667 68.4004 6.31548 69.0256 5.69036C69.6507 5.06523 70.0019 4.21739 70.0019 3.33333C70.0019 2.44928 69.6507 1.60143 69.0256 0.976311C68.4004 0.35119 67.5526 0 66.6685 0L52.6352 0C50.1745 0.000560988 47.8004 0.908396 45.9671 2.54981C44.1338 4.19122 42.97 6.45096 42.6985 8.89667L42.2052 13.3333H16.6685C15.2032 13.3469 13.7584 13.6803 12.4353 14.3102C11.1121 14.94 9.94238 15.8512 9.00786 16.98C8.07334 18.1087 7.39653 19.428 7.02472 20.8454C6.65291 22.2629 6.59506 23.7445 6.85521 25.1867L11.8952 65.4067C12.4059 69.4339 14.3666 73.1371 17.4103 75.8232C20.4541 78.5092 24.3724 79.9941 28.4319 80H51.5685C55.6287 79.9934 59.5474 78.5079 62.5917 75.8214C65.6359 73.1348 67.5972 69.4312 68.1085 65.4033L73.1085 25.51C73.4366 24.0478 73.4299 22.5303 73.0887 21.071C72.7476 19.6118 72.0809 18.2486 71.1385 17.0833ZM63.3352 20C63.8351 19.9998 64.3286 20.1121 64.7793 20.3284C65.2299 20.5448 65.6261 20.8598 65.9385 21.25C66.2733 21.6887 66.5014 22.1993 66.605 22.7413C66.7085 23.2834 66.6846 23.8421 66.5352 24.3733L65.4085 33.3333H46.6885L48.1719 20H63.3352ZM14.0719 21.2467C14.3839 20.8579 14.7792 20.5441 15.2286 20.3284C15.678 20.1126 16.17 20.0004 16.6685 20H41.4585L39.9752 33.3333H14.5819L13.4152 24.0533C13.306 23.5663 13.3083 23.0608 13.422 22.5748C13.5357 22.0887 13.7579 21.6347 14.0719 21.2467ZM61.4919 64.58C61.1847 66.996 60.0078 69.2174 58.1814 70.8285C56.3549 72.4396 54.004 73.3301 51.5685 73.3333H28.4319C25.996 73.3328 23.644 72.4433 21.8175 70.8316C19.991 69.2199 18.8156 66.9969 18.5119 64.58L15.4219 40H64.5719L61.4919 64.58ZM44.7952 50.3667L43.3152 63.7C43.2671 64.1351 43.1337 64.5565 42.9227 64.94C42.7117 65.3236 42.4272 65.6619 42.0855 65.9355C41.7438 66.2091 41.3515 66.4128 40.9311 66.5348C40.5107 66.6568 40.0703 66.6948 39.6352 66.6467C39.2001 66.5985 38.7787 66.4651 38.3952 66.2541C38.0116 66.0431 37.6733 65.7587 37.3997 65.4169C37.1261 65.0752 36.9225 64.683 36.8004 64.2625C36.6784 63.8421 36.6404 63.4018 36.6885 62.9667L38.1685 49.6333C38.2773 48.759 38.7232 47.9617 39.4112 47.4113C40.0992 46.8608 40.975 46.6009 41.8519 46.6867C42.73 46.7847 43.5334 47.2273 44.0853 47.9174C44.6372 48.6075 44.8926 49.4884 44.7952 50.3667Z" fill="#BF0000"/>
</svg>
