<svg width="80" height="80" viewBox="0 0 80 80" fill="none" xmlns="http://www.w3.org/2000/svg">
<g clip-path="url(#clip0_1252_52382)">
<path d="M77.3313 38.6633C74.7946 35.2767 70.908 33.3333 66.6746 33.3333H40.018V23.3567H76.668C78.508 23.3567 80.0013 21.8667 80.0013 20.0233C80.0013 18.18 78.508 16.69 76.668 16.69H40.018V11.9533L76.628 10.02C78.468 9.92334 79.878 8.35334 79.7813 6.51334C79.6846 4.67334 78.1246 3.28667 76.278 3.36L13.1546 6.69334C11.3146 6.79 9.90463 8.36 10.0013 10.2C10.0946 11.9767 11.568 13.3567 13.328 13.3567C13.388 13.3567 13.448 13.3567 13.508 13.3567L16.688 13.19V16.6933H13.3313C11.4913 16.6933 9.99797 18.1833 9.99797 20.0267C9.99797 21.87 11.4913 23.36 13.3313 23.36H16.688V33.3367H13.358C9.12463 33.3367 5.2413 35.2767 2.70463 38.6633C0.141298 42.0733 -0.635368 46.39 0.561298 50.4967C2.9213 58.5667 7.1913 65.8467 12.9213 71.5533C18.3113 76.9167 25.9246 79.9967 33.8146 79.9967H46.2213C54.108 79.9967 61.7213 76.9167 67.1146 71.55C72.8446 65.8467 77.1146 58.5633 79.4713 50.4967C80.6713 46.39 79.8913 42.0767 77.3313 38.66V38.6633ZM23.3513 12.8333L33.3513 12.3067V16.69H23.3513V12.8333ZM23.3513 23.3567H33.3513V33.3333H23.3513V23.3567ZM73.068 48.63C71.0546 55.5233 67.268 61.9867 62.408 66.83C58.2546 70.9633 52.3546 73.3333 46.218 73.3333H33.8113C27.6746 73.3333 21.7746 70.9633 17.6246 66.8333C12.7646 61.99 8.97463 55.5233 6.9613 48.63C6.35463 46.5567 6.74797 44.38 8.03463 42.66C9.3013 40.97 11.2413 40 13.3546 40H66.6713C68.7846 40 70.7246 40.97 71.9946 42.66C73.2813 44.38 73.6746 46.5533 73.068 48.63Z" fill="#272F39"/>
</g>
<defs>
<clipPath id="clip0_1252_52382">
<rect width="80" height="80" fill="white"/>
</clipPath>
</defs>
</svg>
