<svg width="350" height="350" viewBox="0 0 350 350" fill="none" xmlns="http://www.w3.org/2000/svg">
<mask id="mask0_1248_52310" style="mask-type:luminance" maskUnits="userSpaceOnUse" x="0" y="0" width="350" height="350">
<path d="M0 0H350V349.936H0V0Z" fill="white"/>
</mask>
<g mask="url(#mask0_1248_52310)">
<path fill-rule="evenodd" clip-rule="evenodd" d="M182.666 3.74523V72.4084C217.862 76.2821 260.239 72.9868 298.216 74.0794C291.012 57.9536 276.207 44.6674 261.372 35.5645C249.395 28.2144 233.888 23.5636 219.51 18.8193C215.642 24.44 218.92 37.2121 217.833 45.6139C234.946 45.9177 256.009 47.799 258.025 60.688H202.759V2.07422C232.755 4.70342 256.605 18.0189 276.447 32.2166C295.348 45.7366 315.809 62.3999 323.334 87.4767C310.346 91.2394 290.51 88.1428 274.77 89.1535C271.667 92.7468 273.642 101.423 273.099 107.576C291.199 111.239 315.902 108.312 336.731 109.247C345.91 132.763 352.366 163.028 348.458 194.655C333.588 195.298 327.517 194.702 311.614 194.655C306.355 197.208 308.827 207.497 308.266 214.754C315.324 217.681 334.324 211.453 343.433 216.425C339.068 238.861 330.608 257.189 316.638 270.014C297.585 268.98 274.32 272.146 258.025 268.337C253.812 276.68 256.763 281.781 254.677 291.784C261.963 297.305 279.011 291.503 296.54 293.46C296.686 299.753 288.284 305.993 283.148 310.206C262.407 327.214 226.562 344.94 191.038 348.721C134.16 354.779 78.7711 328.289 53.7177 296.808C65.3622 293.379 82.9603 295.909 97.2574 295.131C101.119 290.621 97.8533 278.982 98.9342 271.691C79.6767 268.851 51.2813 269.237 31.9479 271.691C18.2293 260.292 13.894 239.509 8.50704 219.778C20.5079 221.391 26.2688 220.591 38.6494 219.778C42.4998 215.811 39.2512 204.745 40.3263 198.003C22.6697 197.43 17.1601 199.539 1.80549 199.68C-2.7927 167.393 2.57672 132.985 13.5317 110.923H85.5428C87.1495 106.512 88.7738 96.5796 85.5428 92.5014C68.2251 88.6043 43.68 91.9405 23.5753 90.8246C26.3506 76.6385 39.6252 66.3087 48.6988 55.6575C57.2934 45.573 64.1002 39.5609 77.1644 30.5398C95.3234 18.0014 118.373 3.38298 150.846 3.74523V60.6822C132.249 59.2858 111.233 62.8673 97.2574 60.6822C103.9 46.0112 118.051 43.0489 135.778 47.2849C138.793 41.4188 138.238 24.773 135.778 18.8193C98.0169 27.3906 69.2476 44.9537 52.0409 74.0794C88.8381 78.6017 136.59 74.0853 169.268 74.0794C171.068 58.1347 166.668 22.8683 170.945 0.397369C174.755 1.6068 179.499 1.88725 182.666 3.74523ZM98.9284 90.8246V107.576C121.966 113.173 146.616 109.001 175.964 109.247C200.013 109.451 229.834 109.241 258.025 109.247V89.1535C201.029 89.1243 154.247 89.0951 98.9284 90.8246ZM21.8985 125.997C16.2486 141.557 14.3088 160.832 15.2028 182.934H40.3204C40.04 169.257 41.0391 156.859 43.6683 146.09C118.273 145.115 183.081 144.414 266.397 144.414C280.601 144.414 296.633 141.773 309.943 147.767V179.581C318.099 178.815 329.557 181.334 335.054 177.91C334.534 158.331 331.555 141.218 326.682 125.992C221.251 123.725 133.868 126.693 21.8985 125.997ZM53.7177 159.488V182.934C69.9604 185.19 86.0686 177.296 97.2574 184.605C94.821 192.89 98.7239 205.604 97.2574 218.102C120.996 213.655 146.552 219.761 170.939 214.754C170.016 212.691 171.664 201.573 169.268 196.332H115.679V181.258C122.661 183.04 123.064 181.69 130.748 181.258V159.488C113.74 157.303 75.879 156.42 53.7177 159.488ZM142.474 159.488C138.641 165.856 142.637 176.566 144.151 182.934C168.41 183.308 180.101 180.177 206.112 181.258C209.408 176.735 207.106 166.622 207.789 159.488C183.688 156.403 162.006 158.045 142.474 159.488ZM219.51 179.581C221.625 183.606 232.714 178.658 234.578 182.934V196.332H184.337C183.729 205.54 182.631 207.766 184.337 216.425C208.595 215.56 236.465 218.312 258.025 214.748C258.036 208.461 256.529 189.607 259.696 181.258C268.874 177.594 284.638 180.516 296.54 179.581C295.868 172.441 298.164 162.327 294.869 157.811H217.833C218.265 165.196 220.509 170.764 219.51 179.581ZM271.422 196.332C266.958 203.588 272.327 220.684 268.074 228.145C228.671 231.318 193.925 231.493 155.871 231.493C131.829 231.493 107.067 234.204 83.8601 228.145V199.68C76.8138 196.121 63.4633 198.862 53.7177 198.003C52.6193 208.631 55.9262 223.658 52.0409 231.493C43.8202 235.688 34.7699 230.879 26.9232 233.17C28.2436 242.46 32.1348 249.173 36.9667 254.945C131.262 254.542 232.445 256.12 314.962 253.269C316.381 244.078 321.914 239.007 323.334 229.822C314.652 229.016 302.552 231.627 296.54 228.145C297.784 217.669 295.984 209.817 296.54 196.332C289.739 195.222 278.772 195.151 271.422 196.332ZM112.331 270.014C109.965 279.461 112.863 283.855 112.331 295.131C155.591 294.302 202.373 296.978 242.95 293.46V270.014C196.676 269.646 159.54 269.973 112.331 270.014ZM92.2327 310.206C125.618 343.97 220.947 342.691 254.677 310.206C202.659 307.88 153.557 311.514 92.2327 310.206Z" fill="#BF0000"/>
</g>
</svg>
