<svg width="30" height="30" viewBox="0 0 30 30" fill="none" xmlns="http://www.w3.org/2000/svg">
<g clip-path="url(#clip0_1249_52338)">
<path d="M29.9989 7.50001C29.9989 7.83153 29.8672 8.14947 29.6328 8.38389C29.3984 8.61831 29.0804 8.75001 28.7489 8.75001H15.5689C15.1752 9.31376 14.6814 10.04 15.2064 10.6938C15.88 11.57 16.2451 12.6442 16.2451 13.7494C16.2451 14.8546 15.88 15.9288 15.2064 16.805C15.0596 17.0068 14.9805 17.2499 14.9805 17.4994C14.9805 17.7489 15.0596 17.992 15.2064 18.1938C15.88 19.07 16.2451 20.1442 16.2451 21.2494C16.2451 22.3546 15.88 23.4288 15.2064 24.305C15.0596 24.5068 14.9805 24.7499 14.9805 24.9994C14.9805 25.2489 15.0596 25.492 15.2064 25.6938C16.0877 26.8063 17.1552 29.7513 14.9989 30C13.3377 29.9538 14.0514 28.1138 13.2289 27.2225C12.7442 26.5827 12.4818 25.8021 12.4818 24.9994C12.4818 24.1967 12.7442 23.416 13.2289 22.7763C13.5664 22.3388 13.7494 21.8019 13.7494 21.2494C13.7494 20.6969 13.5664 20.16 13.2289 19.7225C12.7442 19.0827 12.4818 18.3021 12.4818 17.4994C12.4818 16.6967 12.7442 15.916 13.2289 15.2763C13.5664 14.8388 13.7494 14.3019 13.7494 13.7494C13.7494 13.1969 13.5664 12.66 13.2289 12.2225C12.859 11.7333 12.6172 11.1594 12.5255 10.5529C12.4338 9.94647 12.4951 9.32672 12.7039 8.75001H10.5889C10.1939 9.31501 9.70017 10.0388 10.2252 10.695C10.8985 11.5713 11.2636 12.6455 11.2636 13.7506C11.2636 14.8558 10.8985 15.9299 10.2252 16.8063C10.0789 17.0082 10.0001 17.2512 10.0001 17.5006C10.0001 17.75 10.0789 17.993 10.2252 18.195C10.8985 19.0713 11.2636 20.1455 11.2636 21.2506C11.2636 22.3558 10.8985 23.43 10.2252 24.3063C10.0789 24.5082 10.0001 24.7512 10.0001 25.0006C10.0001 25.25 10.0789 25.493 10.2252 25.695C11.1064 26.8038 12.1739 29.75 10.0177 30C8.34142 29.9388 9.08017 28.125 8.24767 27.2238C7.76294 26.584 7.50059 25.8033 7.50059 25.0006C7.50059 24.198 7.76294 23.4173 8.24767 22.7775C8.5851 22.34 8.76812 21.8031 8.76812 21.2506C8.76812 20.6981 8.5851 20.1612 8.24767 19.7238C7.76294 19.084 7.50059 18.3033 7.50059 17.5006C7.50059 16.698 7.76294 15.9173 8.24767 15.2775C8.5851 14.84 8.76812 14.3031 8.76812 13.7506C8.76812 13.1981 8.5851 12.6612 8.24767 12.2238C7.87792 11.7342 7.63633 11.16 7.54487 10.5534C7.4534 9.94671 7.51495 9.32683 7.72392 8.75001H5.56892C5.17517 9.31376 4.68142 10.04 5.20642 10.6938C5.87978 11.5701 6.24482 12.6442 6.24482 13.7494C6.24482 14.8545 5.87978 15.9287 5.20642 16.805C5.05922 17.0066 4.9799 17.2498 4.9799 17.4994C4.9799 17.749 5.05922 17.9922 5.20642 18.1938C5.87978 19.0701 6.24482 20.1443 6.24482 21.2494C6.24482 22.3545 5.87978 23.4287 5.20642 24.305C5.05922 24.5066 4.9799 24.7498 4.9799 24.9994C4.9799 25.249 5.05922 25.4922 5.20642 25.6938C6.08767 26.8063 7.15517 29.75 4.99892 30C3.33767 29.9538 4.05142 28.1138 3.22892 27.2225C2.74418 26.5827 2.48184 25.8021 2.48184 24.9994C2.48184 24.1967 2.74418 23.416 3.22892 22.7763C3.56635 22.3388 3.74936 21.8019 3.74936 21.2494C3.74936 20.6969 3.56635 20.16 3.22892 19.7225C2.74418 19.0827 2.48184 18.3021 2.48184 17.4994C2.48184 16.6967 2.74418 15.916 3.22892 15.2763C3.56635 14.8388 3.74936 14.3019 3.74936 13.7494C3.74936 13.1969 3.56635 12.66 3.22892 12.2225C2.85897 11.7333 2.61715 11.1594 2.52546 10.5529C2.43377 9.94647 2.49512 9.32672 2.70392 8.75001H1.24892C0.917402 8.75001 0.59946 8.61831 0.365039 8.38389C0.130619 8.14947 -0.00107747 7.83153 -0.00107747 7.50001C-0.00107747 7.16849 0.130619 6.85054 0.365039 6.61612C0.59946 6.3817 0.917402 6.25001 1.24892 6.25001H28.7489C29.0804 6.25001 29.3984 6.3817 29.6328 6.61612C29.8672 6.85054 29.9989 7.16849 29.9989 7.50001ZM1.24892 5.00001C1.30142 5.01626 28.7864 2.50001 28.8639 2.50001C29.1954 2.46967 29.5013 2.30888 29.7143 2.05301C29.9273 1.79714 30.0299 1.46715 29.9995 1.13563C29.9692 0.804111 29.8084 0.498219 29.5526 0.285248C29.2967 0.072277 28.9667 -0.0303273 28.6352 6.78236e-06L1.13642 2.50001C0.804902 2.51493 0.492886 2.66093 0.269014 2.9059C0.0451427 3.15087 -0.0722459 3.47474 -0.0573275 3.80626C-0.042409 4.13778 0.103594 4.44979 0.348564 4.67367C0.593533 4.89754 0.917402 5.01493 1.24892 5.00001Z" fill="#272F39"/>
</g>
<defs>
<clipPath id="clip0_1249_52338">
<rect width="30" height="30" fill="white"/>
</clipPath>
</defs>
</svg>
