<svg width="207" height="43" viewBox="0 0 207 43" fill="none" xmlns="http://www.w3.org/2000/svg">
<path d="M8.36 33.7C5.66667 33.7 3.8 33.0867 2.76 31.86C2.2 31.22 1.92 30.5 1.92 29.7C1.92 27.78 3.36 25.6867 6.24 23.42C7.17333 22.6733 8.06667 22.3 8.92 22.3C9.13333 22.3 9.24 22.34 9.24 22.42C9.24 22.6067 8.90667 22.8333 8.24 23.1C7.09333 23.58 6.10667 24.46 5.28 25.74C4.42667 27.0467 4 28.2867 4 29.46C4 31.62 5.70667 32.7 9.12 32.7C11.2267 32.7 13.0933 32.38 14.72 31.74C18.2933 30.3533 21.1467 28.5533 23.28 26.34C25.1467 24.4467 26.08 22.6333 26.08 20.9C26.08 18.7933 24.8 17.74 22.24 17.74C18.1867 17.74 15.1733 17.2333 13.2 16.22C11.5733 15.3933 10.76 14.3 10.76 12.94C10.76 10.5933 12.5333 8.64667 16.08 7.1C18.96 5.79333 21.7067 5.14 24.32 5.14C26.4533 5.14 28.1333 5.58 29.36 6.46C29.68 6.64667 29.84 6.91333 29.84 7.26C29.84 7.76667 29.52 8.28666 28.88 8.82C28.2667 9.35333 27.8133 9.59333 27.52 9.54C27.4667 9.54 27.56 9.36667 27.8 9.02C28.1467 8.59333 28.32 8.20667 28.32 7.86C28.32 7.54 28.2 7.26 27.96 7.02C27.24 6.24667 25.92 5.86 24 5.86C21.8667 5.86 19.68 6.32666 17.44 7.26C15.0933 8.27333 13.6667 9.46 13.16 10.82C12.8933 11.5133 12.76 12.14 12.76 12.7C12.76 15.0733 16.08 16.26 22.72 16.26C26.72 16.26 28.72 17.46 28.72 19.86C28.72 21.8867 27.4267 24.1933 24.84 26.78C22.2 29.3667 19.3467 31.1933 16.28 32.26C13.5333 33.22 10.8933 33.7 8.36 33.7ZM31.9216 31.18C29.8682 30.7267 28.8416 29.7933 28.8416 28.38C28.8416 27.98 28.9082 27.5133 29.0416 26.98C29.1749 26.42 29.3882 25.8067 29.6816 25.14L33.0816 17.5C32.6816 17.5533 32.2416 17.6067 31.7616 17.66C31.2816 17.7133 30.7482 17.7667 30.1616 17.82C30.0549 17.82 30.0016 17.7267 30.0016 17.54C30.0016 17.1667 30.0682 16.9533 30.2016 16.9L33.5616 16.42L36.1616 11.14C36.4016 10.66 37.1482 10.42 38.4016 10.42C38.9882 10.42 39.2416 10.4867 39.1616 10.62C38.5749 11.5533 37.9749 12.5 37.3616 13.46C36.7749 14.3933 36.1882 15.3267 35.6016 16.26C35.6816 16.2333 35.8549 16.2067 36.1216 16.18C36.3882 16.1533 36.7349 16.1267 37.1616 16.1C37.4816 16.0733 37.7882 16.06 38.0816 16.06C38.3749 16.0333 38.6549 16.02 38.9216 16.02C40.0416 16.02 40.5749 16.0733 40.5216 16.18C40.3349 16.3667 38.5216 16.7267 35.0816 17.26C32.1749 22.7533 30.7216 26.6333 30.7216 28.9C30.7216 29.7267 30.9616 30.22 31.4416 30.38C31.8149 30.4867 32.7616 29.9933 34.2816 28.9C35.1616 28.26 35.9616 27.5667 36.6816 26.82C37.4016 26.0467 38.0549 25.2333 38.6416 24.38C38.8282 24.1133 39.0016 23.98 39.1616 23.98C39.2682 23.98 39.3216 24.0333 39.3216 24.14C39.3216 24.2467 39.2549 24.4067 39.1216 24.62C38.1082 26.2467 36.7616 27.78 35.0816 29.22C33.4549 30.6333 32.4016 31.2867 31.9216 31.18ZM40.0659 30.82C39.2926 30.82 38.6126 30.6333 38.0259 30.26C37.2526 29.7267 36.8659 28.9533 36.8659 27.94C36.8659 26.8467 37.3326 25.5133 38.2659 23.94C39.5193 21.8867 41.3593 20.0867 43.7859 18.54C44.3993 18.14 45.0126 17.94 45.6259 17.94C46.4259 17.94 46.9993 18.1933 47.3459 18.7C47.5593 18.9933 47.6659 19.3267 47.6659 19.7C47.6659 20.82 46.7593 22.0467 44.9459 23.38C44.4126 23.7533 43.8393 24.1 43.2259 24.42C42.6393 24.7133 41.9993 24.9267 41.3059 25.06L39.5859 25.42C38.9459 26.5667 38.6259 27.5267 38.6259 28.3C38.6259 29.3667 39.2526 29.9 40.5059 29.9C41.4926 29.9 42.6926 29.4867 44.1059 28.66C45.9993 27.5667 47.6259 26.0467 48.9859 24.1C49.1993 23.78 49.3993 23.62 49.5859 23.62C49.6659 23.62 49.7059 23.6733 49.7059 23.78C49.7059 23.9133 49.6126 24.1133 49.4259 24.38C46.8393 28.2733 43.9193 30.4067 40.6659 30.78C40.5593 30.8067 40.4526 30.82 40.3459 30.82C40.2659 30.82 40.1726 30.82 40.0659 30.82ZM40.0659 24.74C40.8126 24.74 41.7726 24.4067 42.9459 23.74C44.5993 22.8067 45.7593 21.6067 46.4259 20.14C46.6126 19.7667 46.7059 19.46 46.7059 19.22C46.7059 18.98 46.6126 18.86 46.4259 18.86C46.0793 18.86 45.3726 19.2867 44.3059 20.14C43.5326 20.8067 42.7726 21.5267 42.0259 22.3C41.3059 23.0467 40.6126 23.8467 39.9459 24.7C39.9193 24.7267 39.9593 24.74 40.0659 24.74ZM50.7041 31.26C48.8107 30.86 47.8641 29.98 47.8641 28.62C47.8641 27.82 48.1174 26.66 48.6241 25.14C48.9974 23.9933 49.5041 22.6867 50.1441 21.22C50.8107 19.7267 51.6374 18.0733 52.6241 16.26C54.9974 11.8067 56.7974 9.48667 58.0241 9.3C58.1307 9.27333 58.3041 9.26 58.5441 9.26C59.8507 9.26 60.5041 9.87333 60.5041 11.1C60.5041 12.78 59.0907 15.1667 56.2641 18.26C54.6907 20.02 52.9574 21.58 51.0641 22.94C49.9441 25.6067 49.3841 27.5667 49.3841 28.82C49.3841 29.6467 49.6374 30.14 50.1441 30.3C50.5441 30.4067 51.4774 29.9267 52.9441 28.86C54.6241 27.6333 56.0641 26.14 57.2641 24.38C57.4507 24.1133 57.6241 23.98 57.7841 23.98C57.8907 23.98 57.9441 24.0333 57.9441 24.14C57.9441 24.2467 57.8774 24.4067 57.7441 24.62C56.7307 26.2467 55.4107 27.7933 53.7841 29.26C52.2107 30.7 51.1841 31.3667 50.7041 31.26ZM51.5041 21.86C52.4641 21.14 53.2641 20.42 53.9041 19.7L56.2641 16.9C58.4507 14.3133 59.5441 12.4067 59.5441 11.18C59.5441 10.94 59.4107 10.82 59.1441 10.82C58.6907 10.82 57.9707 11.4733 56.9841 12.78C56.6907 13.2067 56.3841 13.62 56.0641 14.02C55.7441 14.42 55.4241 14.8333 55.1041 15.26C54.7041 15.8467 54.3307 16.42 53.9841 16.98C53.6641 17.54 53.3574 18.1133 53.0641 18.7C52.9841 18.8067 52.8107 19.1267 52.5441 19.66C52.3041 20.1933 51.9574 20.9267 51.5041 21.86ZM58.8291 31.26C56.9357 30.86 55.9891 29.98 55.9891 28.62C55.9891 27.82 56.2424 26.66 56.7491 25.14C57.1224 23.9933 57.6291 22.6867 58.2691 21.22C58.9357 19.7267 59.7624 18.0733 60.7491 16.26C63.1224 11.8067 64.9224 9.48667 66.1491 9.3C66.2557 9.27333 66.4291 9.26 66.6691 9.26C67.9757 9.26 68.6291 9.87333 68.6291 11.1C68.6291 12.78 67.2157 15.1667 64.3891 18.26C62.8157 20.02 61.0824 21.58 59.1891 22.94C58.0691 25.6067 57.5091 27.5667 57.5091 28.82C57.5091 29.6467 57.7624 30.14 58.2691 30.3C58.6691 30.4067 59.6024 29.9267 61.0691 28.86C62.7491 27.6333 64.1891 26.14 65.3891 24.38C65.5757 24.1133 65.7491 23.98 65.9091 23.98C66.0157 23.98 66.0691 24.0333 66.0691 24.14C66.0691 24.2467 66.0024 24.4067 65.8691 24.62C64.8557 26.2467 63.5357 27.7933 61.9091 29.26C60.3357 30.7 59.3091 31.3667 58.8291 31.26ZM59.6291 21.86C60.5891 21.14 61.3891 20.42 62.0291 19.7L64.3891 16.9C66.5757 14.3133 67.6691 12.4067 67.6691 11.18C67.6691 10.94 67.5357 10.82 67.2691 10.82C66.8157 10.82 66.0957 11.4733 65.1091 12.78C64.8157 13.2067 64.5091 13.62 64.1891 14.02C63.8691 14.42 63.5491 14.8333 63.2291 15.26C62.8291 15.8467 62.4557 16.42 62.1091 16.98C61.7891 17.54 61.4824 18.1133 61.1891 18.7C61.1091 18.8067 60.9357 19.1267 60.6691 19.66C60.4291 20.1933 60.0824 20.9267 59.6291 21.86ZM73.1141 30.94C72.5807 30.94 72.0874 30.7667 71.6341 30.42C71.2074 30.0733 70.9541 29.74 70.8741 29.42C70.7941 29.0467 71.2874 27.7133 72.3541 25.42L71.4341 26.74C71.0341 27.3267 70.6341 27.8467 70.2341 28.3C69.8341 28.7533 69.4607 29.1533 69.1141 29.5C68.1007 30.46 67.2474 30.86 66.5541 30.7C64.9541 30.3267 64.1541 29.42 64.1541 27.98C64.1541 26.8333 64.7007 25.3667 65.7941 23.58C66.1407 23.0467 66.5807 22.5133 67.1141 21.98C67.6474 21.4467 68.2607 20.9267 68.9541 20.42C70.7407 19.1133 72.4607 18.46 74.1141 18.46C75.1274 18.46 76.0874 18.7267 76.9941 19.26C77.2874 19.4733 77.4341 19.7 77.4341 19.94C77.4341 20.1267 77.3807 20.22 77.2741 20.22C77.2474 20.22 77.2207 20.2067 77.1941 20.18C76.6341 19.5667 75.8874 19.26 74.9541 19.26C73.8607 19.26 72.6741 19.6733 71.3941 20.5C70.1141 21.3267 68.9674 22.4333 67.9541 23.82C66.5141 25.82 65.7941 27.4467 65.7941 28.7C65.7941 29.42 66.0474 29.8733 66.5541 30.06C67.1941 30.3267 68.5541 29.14 70.6341 26.5C71.4874 25.46 72.1941 24.5267 72.7541 23.7C73.3407 22.8733 73.8074 22.1667 74.1541 21.58C74.3141 21.2867 74.6074 21.14 75.0341 21.14C75.8341 21.14 76.2341 21.38 76.2341 21.86C76.2341 21.94 76.2207 21.9933 76.1941 22.02C73.8741 25.7 72.7141 28.1933 72.7141 29.5C72.7141 29.82 72.8074 29.9933 72.9941 30.02C73.5541 30.18 74.4874 29.7667 75.7941 28.78C77.3674 27.6067 78.8474 26.0467 80.2341 24.1C80.5274 23.7 80.7941 23.5 81.0341 23.5C81.1141 23.5 81.1541 23.5267 81.1541 23.58C81.1541 23.7133 81.0341 23.9667 80.7941 24.34C80.2341 25.22 79.6074 26.0467 78.9141 26.82C78.2474 27.5933 77.5007 28.3133 76.6741 28.98C75.5007 29.9667 74.5407 30.58 73.7941 30.82C73.6074 30.9 73.3807 30.94 73.1141 30.94ZM77.4481 30.98C77.0748 30.98 76.8881 30.86 76.8881 30.62C76.8881 30.5933 76.9148 30.5 76.9681 30.34C78.2215 27.94 79.7015 24.5133 81.4081 20.06C81.5948 19.58 81.9148 19.1667 82.3681 18.82C82.8215 18.4467 83.2081 18.26 83.5281 18.26C83.8748 18.26 84.0215 18.4467 83.9681 18.82C83.7015 19.38 83.3815 20.1 83.0081 20.98C82.6348 21.86 82.1948 22.8867 81.6881 24.06C82.4348 23.0733 83.5415 21.9667 85.0081 20.74C85.7548 20.1267 86.3948 19.62 86.9281 19.22C87.4881 18.82 87.9548 18.5267 88.3281 18.34C88.7015 18.1533 89.1148 18.06 89.5681 18.06C90.1015 18.06 90.5548 18.1933 90.9281 18.46C91.3015 18.7267 91.4881 19.0333 91.4881 19.38C91.4881 19.5933 91.3815 19.8333 91.1681 20.1C90.9815 20.34 90.7815 20.46 90.5681 20.46C90.4615 20.46 90.2348 20.3533 89.8881 20.14C89.5681 19.9 89.2215 19.78 88.8481 19.78C88.4481 19.78 87.9815 19.9 87.4481 20.14C84.0615 21.66 81.1415 25.0867 78.6881 30.42C78.5281 30.7933 78.1148 30.98 77.4481 30.98ZM87.4303 42.82C86.417 42.82 85.9103 42.3133 85.9103 41.3C85.9103 40.4733 86.2703 39.4867 86.9903 38.34C87.4436 37.62 88.017 36.8467 88.7103 36.02C89.4303 35.22 90.2836 34.3667 91.2703 33.46C93.0303 31.7533 94.897 30.2733 96.8703 29.02C97.3236 27.9 97.7103 26.8333 98.0303 25.82C98.377 24.8067 98.6703 23.86 98.9103 22.98C98.7236 23.3 97.697 24.5533 95.8303 26.74C93.5636 29.4067 92.0036 30.74 91.1503 30.74C91.0436 30.74 90.9636 30.7267 90.9103 30.7L89.7103 30.06C89.337 29.8467 89.1103 29.6467 89.0303 29.46C88.9503 29.2467 88.9103 29.0333 88.9103 28.82C88.9103 28.1 89.1236 27.0733 89.5503 25.74C89.977 24.4067 90.6436 22.78 91.5503 20.86C91.9503 20.0067 92.4036 19.58 92.9103 19.58C93.2836 19.58 93.6436 19.86 93.9903 20.42L92.2303 23.9C90.977 26.3533 90.3503 28.06 90.3503 29.02C90.3503 29.66 90.5636 29.98 90.9903 29.98C91.8436 29.98 93.4436 28.5267 95.7903 25.62C96.5636 24.6867 97.2703 23.7933 97.9103 22.94C98.577 22.06 99.177 21.2067 99.7103 20.38C99.897 20.1133 100.164 19.98 100.51 19.98C101.15 19.98 101.47 20.22 101.47 20.7C101.47 20.8067 101.43 20.9267 101.35 21.06C101.137 21.8067 100.844 22.7267 100.47 23.82C100.124 24.8867 99.697 26.1533 99.1903 27.62C100.044 27.1133 100.724 26.86 101.23 26.86C101.444 26.86 101.55 26.9133 101.55 27.02C101.55 27.2867 101.217 27.54 100.55 27.78C100.284 27.8867 99.9903 28.0067 99.6703 28.14C99.377 28.2733 99.057 28.4333 98.7103 28.62C96.8436 33.26 94.5903 37.0867 91.9503 40.1C90.3503 41.9133 88.8436 42.82 87.4303 42.82ZM88.2703 41.98C88.777 41.98 89.3903 41.5667 90.1103 40.74C92.4836 38.0733 94.5636 34.58 96.3503 30.26C92.8036 32.9 90.1636 35.6467 88.4303 38.5C87.8436 39.4333 87.5503 40.26 87.5503 40.98C87.5503 41.6467 87.7903 41.98 88.2703 41.98ZM113.798 19.5909H115.758V27.2614C115.755 27.9645 115.605 28.57 115.311 29.0778C115.016 29.582 114.604 29.9709 114.075 30.2443C113.549 30.5142 112.937 30.6491 112.237 30.6491C111.598 30.6491 111.023 30.5355 110.511 30.3082C110.004 30.0774 109.6 29.7365 109.302 29.2855C109.004 28.8345 108.855 28.2734 108.855 27.6023H110.82C110.824 27.897 110.888 28.1509 111.012 28.364C111.14 28.5771 111.316 28.7404 111.539 28.854C111.763 28.9677 112.021 29.0245 112.312 29.0245C112.628 29.0245 112.896 28.9588 113.116 28.8274C113.336 28.6925 113.503 28.4936 113.617 28.2308C113.734 27.968 113.794 27.6449 113.798 27.2614V19.5909ZM121.439 30.6598C120.619 30.6598 119.91 30.4893 119.314 30.1484C118.721 29.804 118.264 29.3175 117.945 28.6889C117.625 28.0568 117.465 27.3129 117.465 26.457C117.465 25.6154 117.625 24.8768 117.945 24.2411C118.268 23.6019 118.719 23.1048 119.298 22.7496C119.877 22.391 120.557 22.2116 121.338 22.2116C121.842 22.2116 122.318 22.2933 122.765 22.4567C123.216 22.6165 123.614 22.8651 123.959 23.2024C124.307 23.5398 124.58 23.9695 124.779 24.4915C124.978 25.0099 125.077 25.6278 125.077 26.3452V26.9364H118.371V25.6367H123.229C123.225 25.2674 123.145 24.9389 122.989 24.6513C122.833 24.3601 122.615 24.131 122.334 23.9641C122.057 23.7972 121.734 23.7138 121.365 23.7138C120.97 23.7138 120.624 23.8097 120.326 24.0014C120.028 24.1896 119.795 24.4382 119.628 24.7472C119.465 25.0526 119.381 25.3881 119.378 25.7539V26.8885C119.378 27.3643 119.465 27.7727 119.639 28.1136C119.813 28.451 120.056 28.7102 120.368 28.8913C120.681 29.0689 121.047 29.1577 121.466 29.1577C121.746 29.1577 122 29.1186 122.227 29.0405C122.455 28.9588 122.652 28.8398 122.819 28.6836C122.986 28.5273 123.112 28.3338 123.197 28.103L124.997 28.3054C124.884 28.7812 124.667 29.1967 124.347 29.5518C124.031 29.9034 123.627 30.1768 123.133 30.3722C122.639 30.5639 122.075 30.6598 121.439 30.6598ZM128.353 30.5L126.041 22.3182H128.007L129.445 28.071H129.52L130.99 22.3182H132.934L134.404 28.0391H134.484L135.901 22.3182H137.872L135.555 30.5H133.547L132.013 24.9709H131.901L130.367 30.5H128.353ZM142.606 30.6598C141.786 30.6598 141.077 30.4893 140.481 30.1484C139.888 29.804 139.431 29.3175 139.112 28.6889C138.792 28.0568 138.632 27.3129 138.632 26.457C138.632 25.6154 138.792 24.8768 139.112 24.2411C139.435 23.6019 139.886 23.1048 140.465 22.7496C141.044 22.391 141.724 22.2116 142.505 22.2116C143.009 22.2116 143.485 22.2933 143.932 22.4567C144.383 22.6165 144.781 22.8651 145.126 23.2024C145.474 23.5398 145.747 23.9695 145.946 24.4915C146.145 25.0099 146.244 25.6278 146.244 26.3452V26.9364H139.538V25.6367H144.396C144.392 25.2674 144.312 24.9389 144.156 24.6513C144 24.3601 143.782 24.131 143.501 23.9641C143.224 23.7972 142.901 23.7138 142.532 23.7138C142.137 23.7138 141.791 23.8097 141.493 24.0014C141.195 24.1896 140.962 24.4382 140.795 24.7472C140.632 25.0526 140.548 25.3881 140.545 25.7539V26.8885C140.545 27.3643 140.632 27.7727 140.806 28.1136C140.98 28.451 141.223 28.7102 141.535 28.8913C141.848 29.0689 142.214 29.1577 142.633 29.1577C142.913 29.1577 143.167 29.1186 143.394 29.0405C143.622 28.9588 143.819 28.8398 143.986 28.6836C144.153 28.5273 144.279 28.3338 144.364 28.103L146.164 28.3054C146.051 28.7812 145.834 29.1967 145.514 29.5518C145.198 29.9034 144.794 30.1768 144.3 30.3722C143.806 30.5639 143.242 30.6598 142.606 30.6598ZM149.804 19.5909V30.5H147.876V19.5909H149.804ZM151.787 30.5V22.3182H153.656V23.6818H153.742C153.891 23.2095 154.146 22.8455 154.509 22.5898C154.874 22.3306 155.292 22.201 155.76 22.201C155.867 22.201 155.986 22.2063 156.117 22.217C156.252 22.2241 156.364 22.2365 156.453 22.2543V24.0281C156.371 23.9996 156.242 23.9748 156.064 23.9535C155.89 23.9286 155.721 23.9162 155.558 23.9162C155.206 23.9162 154.89 23.9925 154.61 24.1452C154.333 24.2944 154.114 24.5021 153.955 24.7685C153.795 25.0348 153.715 25.342 153.715 25.69V30.5H151.787ZM159.181 33.5682C158.919 33.5682 158.675 33.5469 158.452 33.5043C158.232 33.4652 158.056 33.419 157.924 33.3658L158.372 31.8636C158.652 31.9453 158.903 31.9844 159.123 31.9808C159.343 31.9773 159.537 31.908 159.703 31.7731C159.874 31.6417 160.018 31.4215 160.135 31.1126L160.3 30.6705L157.333 22.3182H159.379L161.264 28.4972H161.349L163.24 22.3182H165.291L162.015 31.4908C161.863 31.924 161.66 32.2951 161.408 32.604C161.156 32.9165 160.847 33.1545 160.481 33.3178C160.119 33.4847 159.686 33.5682 159.181 33.5682ZM176.36 22.5898C176.31 22.1246 176.101 21.7624 175.732 21.5032C175.366 21.244 174.89 21.1143 174.304 21.1143C173.892 21.1143 173.539 21.1765 173.244 21.3008C172.949 21.4251 172.724 21.5937 172.567 21.8068C172.411 22.0199 172.331 22.2631 172.328 22.5366C172.328 22.7638 172.379 22.9609 172.482 23.1278C172.589 23.2947 172.733 23.4368 172.914 23.554C173.095 23.6676 173.295 23.7635 173.516 23.8416C173.736 23.9197 173.958 23.9854 174.181 24.0387L175.204 24.2944C175.616 24.3903 176.012 24.5199 176.392 24.6832C176.776 24.8466 177.118 25.0526 177.42 25.3011C177.725 25.5497 177.967 25.8498 178.145 26.2013C178.322 26.5529 178.411 26.9648 178.411 27.4371C178.411 28.0763 178.248 28.6392 177.921 29.1257C177.594 29.6087 177.122 29.9869 176.504 30.2603C175.89 30.5302 175.146 30.6651 174.272 30.6651C173.423 30.6651 172.686 30.5337 172.061 30.271C171.44 30.0082 170.953 29.6246 170.602 29.1204C170.254 28.6161 170.066 28.0018 170.037 27.2773H171.982C172.01 27.6573 172.127 27.9734 172.333 28.2255C172.539 28.4776 172.807 28.6658 173.137 28.7901C173.471 28.9144 173.844 28.9766 174.256 28.9766C174.686 28.9766 175.062 28.9126 175.385 28.7848C175.712 28.6534 175.968 28.4723 176.152 28.2415C176.337 28.0071 176.431 27.7337 176.435 27.4212C176.431 27.1371 176.348 26.9027 176.184 26.718C176.021 26.5298 175.792 26.3736 175.497 26.2493C175.206 26.1214 174.865 26.0078 174.474 25.9084L173.233 25.5888C172.335 25.358 171.625 25.0082 171.103 24.5394C170.584 24.0671 170.325 23.4403 170.325 22.6591C170.325 22.0163 170.499 21.4535 170.847 20.9705C171.199 20.4876 171.676 20.1129 172.28 19.8466C172.884 19.5767 173.567 19.4418 174.331 19.4418C175.105 19.4418 175.783 19.5767 176.365 19.8466C176.951 20.1129 177.411 20.484 177.745 20.9599C178.079 21.4322 178.251 21.9755 178.262 22.5898H176.36ZM182.016 25.706V30.5H180.087V19.5909H181.973V23.7085H182.069C182.261 23.2468 182.557 22.8828 182.959 22.6165C183.363 22.3466 183.878 22.2116 184.503 22.2116C185.071 22.2116 185.567 22.3306 185.989 22.5685C186.412 22.8065 186.739 23.1545 186.97 23.6126C187.204 24.0707 187.321 24.63 187.321 25.2905V30.5H185.393V25.5888C185.393 25.0384 185.251 24.6104 184.967 24.305C184.686 23.9961 184.292 23.8416 183.784 23.8416C183.443 23.8416 183.138 23.9162 182.868 24.0653C182.602 24.2109 182.392 24.4222 182.239 24.6992C182.09 24.9762 182.016 25.3118 182.016 25.706ZM192.856 30.6598C192.057 30.6598 191.364 30.484 190.778 30.1325C190.192 29.7809 189.738 29.2891 189.415 28.657C189.095 28.0249 188.935 27.2862 188.935 26.4411C188.935 25.5959 189.095 24.8555 189.415 24.2198C189.738 23.5842 190.192 23.0906 190.778 22.739C191.364 22.3874 192.057 22.2116 192.856 22.2116C193.655 22.2116 194.347 22.3874 194.933 22.739C195.519 23.0906 195.972 23.5842 196.291 24.2198C196.614 24.8555 196.776 25.5959 196.776 26.4411C196.776 27.2862 196.614 28.0249 196.291 28.657C195.972 29.2891 195.519 29.7809 194.933 30.1325C194.347 30.484 193.655 30.6598 192.856 30.6598ZM192.866 29.1151C193.299 29.1151 193.662 28.9961 193.953 28.7582C194.244 28.5167 194.461 28.1935 194.603 27.7887C194.748 27.3839 194.821 26.9329 194.821 26.4357C194.821 25.935 194.748 25.4822 194.603 25.0774C194.461 24.669 194.244 24.3441 193.953 24.1026C193.662 23.8612 193.299 23.7404 192.866 23.7404C192.422 23.7404 192.053 23.8612 191.758 24.1026C191.467 24.3441 191.249 24.669 191.103 25.0774C190.961 25.4822 190.89 25.935 190.89 26.4357C190.89 26.9329 190.961 27.3839 191.103 27.7887C191.249 28.1935 191.467 28.5167 191.758 28.7582C192.053 28.9961 192.422 29.1151 192.866 29.1151ZM198.413 33.5682V22.3182H200.309V23.6712H200.421C200.52 23.4723 200.661 23.261 200.842 23.0373C201.023 22.81 201.268 22.6165 201.577 22.4567C201.886 22.2933 202.28 22.2116 202.759 22.2116C203.391 22.2116 203.961 22.3732 204.469 22.6964C204.98 23.016 205.385 23.4901 205.684 24.1186C205.985 24.7436 206.136 25.5107 206.136 26.4197C206.136 27.3182 205.989 28.0817 205.694 28.7102C205.4 29.3388 204.998 29.8182 204.49 30.1484C203.983 30.4787 203.407 30.6438 202.765 30.6438C202.296 30.6438 201.907 30.5657 201.598 30.4094C201.289 30.2532 201.04 30.065 200.852 29.8448C200.668 29.6211 200.524 29.4098 200.421 29.2109H200.341V33.5682H198.413ZM200.304 26.4091C200.304 26.9382 200.378 27.4016 200.527 27.7994C200.68 28.1971 200.898 28.5078 201.183 28.7315C201.47 28.9517 201.818 29.0618 202.227 29.0618C202.653 29.0618 203.01 28.9482 203.297 28.7209C203.585 28.4901 203.801 28.1758 203.947 27.7781C204.096 27.3768 204.171 26.9205 204.171 26.4091C204.171 25.9013 204.098 25.4503 203.952 25.0561C203.807 24.6619 203.59 24.353 203.303 24.1293C203.015 23.9055 202.656 23.7937 202.227 23.7937C201.815 23.7937 201.465 23.902 201.177 24.1186C200.89 24.3352 200.671 24.6388 200.522 25.0295C200.376 25.4201 200.304 25.88 200.304 26.4091Z" fill="black"/>
</svg>
